Coordinates
version=1
nRows=29
nColumns=24
inDegrees=yes

Units are S.I. units (second, meters, Newtons, ...)
Angles are in degrees.

endheader
time	pelvis_tilt	pelvis_list	pelvis_rotation	pelvis_tx	pelvis_ty	pelvis_tz	hip_flexion_r	hip_adduction_r	hip_rotation_r	knee_angle_r	ankle_angle_r	subtalar_angle_r	mtp_angle_r	hip_flexion_l	hip_adduction_l	hip_rotation_l	knee_angle_l	ankle_angle_l	subtalar_angle_l	mtp_angle_l	lumbar_extension	lumbar_bending	lumbar_rotation
      0.56600000	     -3.95798734	      4.40242439	     13.73392805	     -0.81583675	      0.86666222	      0.27048848	     36.11868957	     -8.03855819	    -13.53057686	    -11.98128750	     12.08586169	      3.60911830	      5.95258932	    -18.55369211	      4.15423083	      7.33134836	    -11.66753214	     14.22340076	      3.66585639	     15.85583905	     -2.83888975	     -7.48222186	    -12.31670635
      0.57016667	     -3.93403467	      4.27248194	     13.76486898	     -0.80941424	      0.86593543	      0.27070868	     36.09011292	     -7.82808738	    -13.43353250	    -12.57493811	     11.85852125	      3.20498989	      5.88883197	    -18.57354347	      3.89026863	      7.06838383	    -12.44453976	     14.06449711	      4.01890410	     15.98537324	     -2.75031496	     -7.26697537	    -12.11329934
      0.57433333	     -3.87063431	      4.15868890	     13.80915626	     -0.80294898	      0.86535064	      0.27087467	     36.00030630	     -7.64291415	    -13.42899712	    -13.16965883	     11.65922849	      2.95427775	      5.87399999	    -18.67338758	      3.64727613	      7.00863567	    -13.14126183	     13.71865988	      3.99729125	     16.05217807	     -2.69143412	     -7.05973827	    -12.09152128
      0.57850000	     -3.84104108	      3.99296317	     13.82105719	     -0.79641097	      0.86473170	      0.27115831	     35.91081399	     -7.36136265	    -13.26475509	    -13.66042232	     11.23819147	      2.43410309	      5.86325910	    -18.70750235	      3.35614373	      6.85492630	    -13.87733970	     13.37506138	      4.14264562	     16.25484680	     -2.60437091	     -6.77317382	    -12.01019762
      0.58266667	     -3.76855974	      3.83395557	     13.81639945	     -0.78983426	      0.86418134	      0.27146120	     35.78849625	     -7.07465609	    -13.13812264	    -14.19152862	     10.79918159	      1.89203355	      5.88575103	    -18.76803086	      3.06470223	      6.65501355	    -14.65510137	     13.08650615	      4.29049860	     16.64692587	     -2.54483681	     -6.50897932	    -11.90252541
      0.58683333	     -3.72718847	      3.68311531	     13.81977115	     -0.78324917	      0.86362732	      0.27175351	     35.69710422	     -6.81223056	    -13.04032313	    -14.73043930	     10.35874261	      1.51310007	      6.51051227	    -18.77077555	      2.78484113	      6.44425315	    -15.46643621	     12.62163805	      4.38567517	     21.17217221	     -2.46363361	     -6.26032623	    -11.84121110
      0.59100000	     -3.67083323	      3.50454974	     13.80070141	     -0.77659065	      0.86313900	      0.27207765	     35.57489899	     -6.49720713	    -12.90374342	    -15.22861695	      9.81947982	      1.00144720	      6.51835974	    -18.81180880	      2.49260658	      6.33864116	    -16.23342330	     12.14751148	      4.32101935	     21.23905532	     -2.37615951	     -5.95977774	    -11.70243829
      0.59516667	     -3.65131526	      3.33165541	     13.77291391	     -0.76990825	      0.86263154	      0.27241557	     35.49953775	     -6.19301162	    -12.75749860	    -15.74437997	      9.25872235	      0.57986013	      6.54108108	    -18.78211447	      2.21853029	      6.20704570	    -17.05383002	     11.58664309	      4.31972077	     21.33861922	     -2.24666099	     -5.67052558	    -11.58678786
      0.59933333	     -3.59925749	      3.14663480	     13.72324256	     -0.76322211	      0.86217023	      0.27283052	     35.39798612	     -5.84497975	    -12.54139592	    -16.26269307	      8.62070768	     -0.09392227	      6.61185618	    -18.75304155	      1.92192195	      6.00153161	    -17.93720482	     11.12603475	      4.36615413	     21.57402688	     -2.15779015	     -5.38305158	    -11.41171160
      0.60350000	     -3.59567457	      2.96092983	     13.67302728	     -0.75649072	      0.86169376	      0.27320765	     35.36058421	     -5.52390664	    -12.37979899	    -16.81802456	      8.01233406	     -0.48849375	      6.66789818	    -18.67019134	      1.64723222	      5.86196813	    -18.81065120	     10.47657282	      4.35367861	     21.75797163	     -2.00387492	     -5.07196061	    -11.28571109
      0.60766667	     -3.56570629	      2.76974557	     13.59472503	     -0.74977382	      0.86124481	      0.27367944	     35.31285744	     -5.16016013	    -12.11769101	    -17.39126558	      7.32994051	     -1.20447406	      6.78574386	    -18.57074188	      1.36017104	      5.63774031	    -19.77047249	      9.95490643	      4.38531601	     22.12349514	     -1.89383321	     -4.77790802	    -11.07347327
      0.61183333	     -3.55044265	      2.53627726	     13.54658460	     -0.74300567	      0.86082036	      0.27410037	     35.27966001	     -4.79429274	    -11.98360403	    -17.97350759	      6.69410602	     -1.67677272	      8.29212898	    -18.39728617	      1.00767410	      5.34714241	    -20.80538173	      9.31668787	      4.53308579	     26.44481302	     -1.72744845	     -4.41774551	    -10.94998245
      0.61600000	     -3.55382456	      2.38511611	     13.42449453	     -0.73625365	      0.86040515	      0.27456158	     35.31974773	     -4.48043390	    -11.71058437	    -18.67842066	      6.11172397	     -2.08142930	      8.28839830	    -18.27617896	      0.80886359	      5.23804331	    -21.72573282	      8.49023005	      4.35076140	     26.48926599	     -1.58495505	     -4.14907503	    -10.77975852
      0.62016667	     -3.55871664	      2.19915764	     13.32536540	     -0.72953982	      0.85999828	      0.27507409	     35.36301038	     -4.13117841	    -11.41830673	    -19.37546444	      5.50122252	     -2.71560766	      8.30971000	    -18.06114180	      0.54731138	      5.03487803	    -22.80833621	      7.82692356	      4.31599724	     26.65893050	     -1.44088688	     -3.86945158	    -10.51554229
      0.62433333	     -3.56949085	      2.00204291	     13.21330606	     -0.72279266	      0.85961242	      0.27558119	     35.43385671	     -3.77790539	    -11.15140191	    -20.12922896	      4.97130207	     -3.20914513	      8.35271462	    -17.82218978	      0.28047680	      4.82894347	    -23.90828555	      7.08682121	      4.31157538	     26.92217466	     -1.27894544	     -3.55510600	    -10.29985577
      0.62850000	     -3.61040555	      1.82735445	     13.08250675	     -0.71606098	      0.85918545	      0.27608961	     35.58508201	     -3.45773703	    -10.88447044	    -20.99532778	      4.49974151	     -3.62977244	      8.37797493	    -17.53437089	      0.05638975	      4.63604430	    -25.04069792	      6.32813584	      4.27313937	     27.10967792	     -1.08110806	     -3.26247451	    -10.11697597
      0.63266667	     -3.64180328	      1.63839647	     12.95392715	     -0.70933115	      0.85880915	      0.27663009	     35.72500362	     -3.11837201	    -10.60278482	    -21.86619818	      4.09518018	     -4.04861488	      8.40400007	    -17.21022376	     -0.19689678	      4.40445274	    -26.23793889	      5.49958588	      4.26399774	     27.33633658	     -0.90028141	     -2.96638156	     -9.90501995
      0.63683333	     -3.61743597	      1.40310151	     12.81468029	     -0.70254902	      0.85854260	      0.27719587	     35.80039151	     -2.71377898	    -10.34020453	    -22.72601901	      3.74137698	     -4.51569694	      8.47929900	    -16.91800100	     -0.52228589	      4.11449166	    -27.45459365	      4.65569347	      4.33116384	     28.14791886	     -0.76769058	     -2.57052026	     -9.60436122
      0.64100000	     -3.68434195	      1.25981590	     12.67693267	     -0.69589591	      0.85816486	      0.27773973	     36.02310160	     -2.43496998	    -10.05153200	    -23.72343543	      3.51555376	     -4.74090538	      8.48457746	    -16.49755098	     -0.70881348	      3.92982844	    -28.74457123	      3.77407757	      4.24545812	     28.32021769	     -0.57884548	     -2.34776280	     -9.50658366
      0.64516667	     -3.71686030	      1.07625208	     12.53844647	     -0.68921540	      0.85786103	      0.27830892	     36.20132665	     -2.10395067	     -9.78107057	    -24.70609688	      3.33723174	     -5.03520215	      8.47730401	    -16.07323336	     -0.96116675	      3.69048022	    -30.07869075	      2.85727403	      4.22671627	     28.51073392	     -0.41310911	     -2.05142528	     -9.31152843
      0.64933333	     -3.73693782	      0.88401794	     12.39657911	     -0.68253810	      0.85760827	      0.27889063	     36.36120440	     -1.75963128	     -9.52182332	    -25.68668306	      3.22638870	     -5.28187110	      8.45727029	    -15.62667031	     -1.23369704	      3.42292919	    -31.45102410	      1.91547889	      4.22935342	     28.68288310	     -0.26053101	     -1.74270140	     -9.13125559
      0.65350000	     -3.74637154	      0.68035698	     12.25870228	     -0.67588751	      0.85740037	      0.27948665	     36.50268604	     -1.40144951	     -9.27793992	    -26.65934348	      3.17906029	     -5.51333870	      8.42158127	    -15.15592288	     -1.52841613	      3.15630732	    -32.86436759	      0.94494733	      4.22387186	     28.84515826	     -0.12519125	     -1.41740497	     -8.95442554
      0.65766667	     -3.74804240	      0.47360260	     12.12208118	     -0.66925836	      0.85724395	      0.28008986	     36.62380169	     -1.03807231	     -9.04962141	    -27.61635973	      3.19498791	     -5.71062094	      8.36986876	    -14.65562582	     -1.83531349	      2.88179598	    -34.31690878	     -0.05418481	      4.22092232	     28.98446803	     -0.00230724	     -1.08963931	     -8.78855890
      0.66183333	     -3.71128518	      0.25532917	     11.98742268	     -0.66263378	      0.85719096	      0.28067370	     36.68044112	     -0.65909423	     -8.85406366	    -28.53756822	      3.31822871	     -5.82695444	      8.34018277	    -14.17935884	     -2.16338699	      2.62126924	    -35.76630228	     -1.11417110	      4.15863248	     29.03005490	      0.07077228	     -0.72473550	     -8.68199115
      0.66600000	     -3.69342960	      0.02917420	     11.84970857	     -0.65605439	      0.85713802	      0.28129272	     36.74146987	     -0.26792696	     -8.66342140	    -29.42292940	      3.44478965	     -5.95746900	      8.30010932	    -13.63831572	     -2.51076005	      2.32561072	    -37.26809452	     -2.19122545	      4.13026539	     29.05737331	      0.16972879	     -0.36984401	     -8.54638002
      0.67016667	     -3.66722587	     -0.20511685	     11.71352312	     -0.64952722	      0.85712634	      0.28192393	     36.77115799	      0.13500118	     -8.49085846	    -30.26109374	      3.60310553	     -6.08269780	      8.25004466	    -13.07104775	     -2.87788262	      2.02468093	    -38.80130125	     -3.24907057	      4.09503292	     29.06063858	      0.25287725	     -0.00929538	     -8.40482329
      0.67433333	     -3.63383758	     -0.46836174	     11.57446120	     -0.64305069	      0.85715204	      0.28260022	     36.76424653	      0.57893757	     -8.33297888	    -31.02452580	      3.73734307	     -6.29589984	      8.09592457	    -12.46646078	     -3.30475654	      1.65924849	    -40.37719805	     -4.27096552	      4.15300701	     29.01699520	      0.33556922	      0.37927351	     -8.18947343
      0.67850000	     -3.56166243	     -0.71090685	     11.42913406	     -0.63659425	      0.85731627	      0.28323968	     36.68283328	      1.00575068	     -8.20339010	    -31.74570093	      4.01142722	     -6.32524560	      8.04302706	    -11.91088622	     -3.69737516	      1.35416801	    -41.89580727	     -5.39937428	      4.02868625	     28.95912274	      0.34574873	      0.75781727	     -8.10239951
      0.68266667	     -3.50728773	     -1.00090253	     11.28168763	     -0.63020605	      0.85747167	      0.28394247	     36.58672445	      1.48714357	     -8.09659902	    -32.36371080	      4.18450527	     -6.43862705	      7.88181038	    -11.27847377	     -4.17187844	      0.97463512	    -43.47678677	     -6.42693434	      4.00566164	     28.76144511	      0.40103798	      1.17534528	     -7.92192563
